<?xml version="1.0" encoding="utf-8"?>
<!-- Generator: Adobe Illustrator 24.0.2, SVG Export Plug-In . SVG Version: 6.00 Build 0)  -->
<svg version="1.1" id="Camada_1" xmlns="http://www.w3.org/2000/svg" xmlns:xlink="http://www.w3.org/1999/xlink" x="0px" y="0px"
	 viewBox="0 0 915.07 361.64" style="enable-background:new 0 0 915.07 361.64;" xml:space="preserve">
<style type="text/css">
	.st0{fill:#FFFFFF;}
	.st1{fill:none;stroke:#717070;}
	.st2{fill:#717070;}
</style>
<g id="Grupo_480" transform="translate(-316 -338)">
	<g id="Retângulo_493" transform="translate(316 677) rotate(-90)">
		<path class="st0" d="M27.99,14.93h259c22.09,0,40,17.91,40,40v821c0,11.05-8.95,20-20,20h-299c-11.05,0-20-8.95-20-20v-821
			C-12.01,32.84,5.9,14.93,27.99,14.93z"/>
		<path class="st1" d="M27.99,15.43h259c21.82,0,39.5,17.68,39.5,39.5v821c0,10.77-8.73,19.5-19.5,19.5l0,0h-299
			c-10.77,0-19.5-8.73-19.5-19.5l0,0v-821C-11.51,33.11,6.18,15.43,27.99,15.43z"/>
	</g>
	<g id="Caminho_2253" transform="translate(1188.095 628.795) rotate(-90)">
		<path class="st0" d="M222.63,30.28H-4.08c-4.1,0-7.43-3.33-7.43-7.43s3.33-7.43,7.43-7.43h226.71c4.1,0,7.43,3.33,7.43,7.43
			S226.73,30.28,222.63,30.28z"/>
		<path class="st2" d="M-4.08,15.93c-3.82,0-6.93,3.11-6.93,6.93s3.11,6.93,6.93,6.93h226.71c3.82,0,6.93-3.11,6.93-6.93
			s-3.11-6.93-6.93-6.93H-4.08 M-4.08,14.93h226.71c4.38,0,7.93,3.55,7.93,7.93s-3.55,7.93-7.93,7.93H-4.08
			c-4.38,0-7.93-3.55-7.93-7.93S-8.46,14.93-4.08,14.93z"/>
	</g>
</g>
</svg>
