<?xml version="1.0" encoding="utf-8"?>
<!-- Generator: Adobe Illustrator 24.0.2, SVG Export Plug-In . SVG Version: 6.00 Build 0)  -->
<svg version="1.1" id="Camada_1" xmlns="http://www.w3.org/2000/svg" xmlns:xlink="http://www.w3.org/1999/xlink" x="0px" y="0px"
	 viewBox="0 0 850.39 850.39" style="enable-background:new 0 0 850.39 850.39;" xml:space="preserve">
<style type="text/css">
	.st0{fill:#717070;}
</style>
<path id="Subtração_29" class="st0" d="M837.63,425.68c0,27.9-2.81,55.73-8.38,83.06c-10.8,52.77-31.89,102.89-62.06,147.51
	c-44.77,66.32-107.81,118.23-181.48,149.44c-24.95,10.57-50.89,18.65-77.44,24.11c-54.84,11.17-111.36,11.17-166.2,0
	c-52.79-10.79-102.93-31.88-147.57-62.06C128.18,722.97,76.27,659.94,45.05,586.26C34.49,561.28,26.44,535.31,21,508.74
	C9.83,453.88,9.83,397.33,21,342.47c10.8-52.77,31.89-102.89,62.06-147.51c44.77-66.32,107.81-118.23,181.48-149.44
	c24.99-10.53,50.95-18.56,77.52-23.97c54.86-11.17,111.41-11.17,166.27,0c52.77,10.8,102.89,31.89,147.51,62.06
	c66.32,44.77,118.23,107.81,149.44,181.48c10.55,24.96,18.59,50.9,24.03,77.44C834.87,369.9,837.66,397.76,837.63,425.68z
	 M546.34,431.12c-1.27,62.37,10.74,124.29,35.23,181.67c22.65,48.53,52.94,75.26,85.08,75.26s62.35-26.77,85.08-75.26
	c24.49-57.37,36.5-119.3,35.23-181.67c1.29-62.36-10.69-124.29-35.15-181.67c-22.65-48.53-52.94-75.26-85.08-75.26
	s-62.35,26.77-85.08,75.26C557.13,306.82,545.1,368.74,546.34,431.12z M457.37,461.26c0-59.59,25.45-110.2,51.48-156.94l7.64-13.61
	c11.2-19.02,21.39-38.61,30.54-58.7c3.96-9.03,7.21-18.36,9.7-27.9c2.34-8.91,3.56-18.07,3.62-27.28
	c0.05-14.62-3.6-29.02-10.62-41.84c-4.07-7.47-8.95-14.47-14.54-20.88c-6.66-7.61-13.95-14.64-21.8-21
	c-16.29-13.53-33.58-25.82-51.72-36.75c-62.82-8.97-126.89,0.02-184.82,25.94c-21.07,9.43-41.15,20.95-59.94,34.36
	c-18.83,13.46-36.31,28.69-52.22,45.5c-16.01,16.99-30.38,35.45-42.93,55.14c-12.8,20.04-23.69,41.24-32.53,63.31
	c-9.06,22.63-15.95,46.07-20.59,70.01c-9.57,49.65-9.57,100.66,0,150.31c4.64,23.93,11.53,47.37,20.59,70.01
	c8.85,22.01,19.74,43.13,32.53,63.11c12.59,19.7,27,38.17,43.05,55.16c15.9,16.81,33.39,32.05,52.22,45.5
	c18.79,13.42,38.87,24.93,59.94,34.36c63.5,28.36,134.23,36.37,202.46,22.94c6.85-6.05,13.16-12.68,18.88-19.81
	c5.76-7.2,10.76-14.98,14.93-23.21c4.29-8.51,7.59-17.5,9.82-26.77c2.38-10.07,3.57-20.38,3.54-30.72c-0.23-17.31-3-34.5-8.24-51
	c-6.67-20.97-15.64-41.12-26.77-60.1C469.79,544.45,457.98,503.31,457.37,461.26z"/>
</svg>
